<svg width="354" height="346" viewBox="0 0 354 346" fill="none" xmlns="http://www.w3.org/2000/svg">
<path d="M349.131 7.06176C347.332 4.87666 345.073 3.11693 342.515 1.90867C339.957 0.700417 337.163 0.0735521 334.335 0.072998H66.0014C60.9181 0.072998 56.043 2.09439 52.4485 5.6925C48.8541 9.29061 46.8347 14.1707 46.8347 19.2592C46.8347 24.3477 48.8541 29.2278 52.4485 32.8259C56.043 36.424 60.9181 38.4454 66.0014 38.4454H311.069L296.101 115.19H46.8347C41.7514 115.19 36.8763 117.212 33.2819 120.81C29.6874 124.408 27.6681 129.288 27.6681 134.376C27.6681 139.465 29.6874 144.345 33.2819 147.943C36.8763 151.541 41.7514 153.562 46.8347 153.562H288.617L266.334 267.818L145.139 306.125L41.4441 273.523L45.3466 253.091C46.2997 248.092 45.23 242.918 42.3727 238.709C39.5154 234.499 35.1046 231.599 30.1107 230.645C25.1167 229.69 19.9487 230.761 15.7435 233.621C11.5382 236.482 8.64032 240.897 7.68719 245.896L0.593227 283.116C-0.285564 287.737 0.561309 292.521 2.97309 296.558C5.38486 300.596 9.19364 303.606 13.6764 305.018L139.411 344.544C143.162 345.721 147.183 345.718 150.932 344.534L288.739 300.982C292.024 299.941 294.968 298.034 297.262 295.461C299.556 292.887 301.115 289.743 301.776 286.358L353.146 22.9316C353.687 20.1537 353.608 17.2903 352.914 14.5466C352.22 11.8029 350.928 9.24689 349.131 7.06176V7.06176Z" fill="white"/>
</svg>
