<svg width="356" height="393" viewBox="0 0 356 393" fill="none" xmlns="http://www.w3.org/2000/svg">
<g filter="url(#filter0_d)">
<path d="M225.492 248.057C211.08 249.463 196.561 246.817 183.569 240.416C180.626 238.059 178.197 235.123 176.432 231.79C174.667 228.456 173.603 224.796 173.306 221.035C173.3 220.472 173.183 219.916 172.961 219.399C172.738 218.882 172.416 218.414 172.012 218.022C171.608 217.631 171.131 217.323 170.607 217.118C170.084 216.912 169.525 216.813 168.963 216.825C162.895 216.751 156.828 216.767 150.761 216.816C149.701 216.708 148.641 217.023 147.81 217.692C146.98 218.361 146.447 219.33 146.326 220.39C145.98 226.989 147.095 233.583 149.59 239.701C152.085 245.819 155.899 251.309 160.76 255.78C173.03 265.365 187.929 270.975 203.468 271.862C219.659 273.742 236.045 273.045 252.019 269.799C264.284 267.508 275.53 261.442 284.185 252.446C288.97 246.541 292.177 239.515 293.504 232.028C294.832 224.541 294.237 216.839 291.775 209.646C289.707 204.575 286.507 200.046 282.419 196.406C278.331 192.766 273.464 190.111 268.192 188.646C243.644 180.024 217.126 180.676 192.101 174.124C187.756 172.755 182.447 171.269 180.511 166.665C179.392 163.425 179.315 159.915 180.292 156.629C181.269 153.343 183.251 150.446 185.958 148.346C193.816 143.851 202.763 141.621 211.809 141.903C224.086 140.746 236.462 142.519 247.922 147.076C251.365 149.102 254.326 151.855 256.599 155.142C258.872 158.43 260.403 162.173 261.085 166.112C261.118 167.274 261.584 168.383 262.391 169.219C263.198 170.056 264.288 170.56 265.447 170.633C271.472 170.756 277.499 170.666 283.524 170.674C284.569 170.799 285.623 170.543 286.494 169.951C287.365 169.36 287.994 168.474 288.264 167.456C288.318 159.322 286.247 151.314 282.258 144.227C278.269 137.139 272.499 131.218 265.52 127.05C246.258 118.151 224.877 114.877 203.838 117.602V117.601C188.423 118.233 173.695 124.157 162.128 134.377C156.818 140.106 153.222 147.213 151.75 154.888C150.278 162.563 150.989 170.498 153.803 177.788C155.992 182.672 159.214 187.022 163.246 190.539C167.277 194.056 172.023 196.656 177.155 198.16C201.621 207.006 228.436 204.167 253.14 211.989C257.953 213.624 263.559 216.124 265.034 221.488C265.827 224.702 265.767 228.068 264.86 231.252C263.954 234.436 262.232 237.328 259.866 239.641C249.592 246.03 237.552 248.978 225.492 248.057V248.057ZM337.021 86.0227C289.253 58.9829 241.474 31.9676 193.684 4.97676C188.889 2.29277 183.487 0.883545 177.993 0.883545C172.499 0.883545 167.097 2.29277 162.302 4.97676C114.698 31.886 67.0912 58.794 19.4822 85.7007C14.8507 88.2277 10.9789 91.9492 8.26859 96.479C5.55825 101.009 4.10803 106.182 4.06836 111.462V274.051C4.14459 279.427 5.6729 284.682 8.49122 289.259C11.3095 293.836 15.3128 297.564 20.0764 300.048C33.752 307.499 47.0389 315.709 60.9623 322.665C68.9986 326.966 77.9244 329.335 87.0334 329.586C96.1425 329.836 105.185 327.961 113.445 324.109C119.626 320.234 124.655 314.77 128.008 308.287C131.362 301.804 132.917 294.539 132.512 287.25C132.619 233.592 132.529 179.932 132.553 126.273C132.646 125.686 132.615 125.086 132.46 124.513C132.306 123.939 132.032 123.405 131.657 122.944C131.282 122.484 130.814 122.108 130.284 121.841C129.754 121.575 129.173 121.423 128.58 121.396C122.497 121.298 116.405 121.339 110.321 121.38C109.758 121.33 109.191 121.399 108.656 121.583C108.121 121.767 107.632 122.063 107.219 122.45C106.806 122.837 106.48 123.307 106.262 123.829C106.043 124.351 105.938 124.914 105.951 125.48C105.87 178.793 105.968 232.122 105.902 285.444C105.916 289.124 104.806 292.721 102.719 295.752C100.633 298.782 97.6707 301.102 94.2299 302.399C90.2677 303.572 86.103 303.894 82.0079 303.345C77.9128 302.797 73.9793 301.389 70.4646 299.215C57.7951 292.053 45.126 284.89 32.4571 277.729C31.6176 277.331 30.9202 276.685 30.4588 275.877C29.9974 275.07 29.7942 274.141 29.8765 273.215C29.8765 219.572 29.8765 165.933 29.8765 112.295C29.7884 111.252 30.0319 110.207 30.5723 109.311C31.1128 108.414 31.9224 107.711 32.8856 107.303C80.3335 80.5526 127.772 53.7741 175.202 26.9676C176.026 26.4044 177 26.1038 177.998 26.1053C178.996 26.1068 179.969 26.4102 180.792 26.9758C228.238 53.7347 275.682 80.5029 323.124 107.28C324.082 107.7 324.886 108.409 325.422 109.308C325.959 110.208 326.201 111.252 326.116 112.296C326.108 165.929 326.102 219.566 326.1 273.208C326.184 274.138 325.985 275.072 325.531 275.887C325.076 276.703 324.387 277.362 323.552 277.779C276.831 304.225 230.085 330.632 183.314 357.001C181.079 358.247 178.434 360.251 175.821 358.742C163.571 351.801 151.472 344.591 139.263 337.585C138.639 337.107 137.887 336.827 137.103 336.78C136.318 336.732 135.538 336.921 134.861 337.32C129.484 340.474 123.824 343.118 117.955 345.218C115.308 346.29 112.053 346.596 110.231 349.053C112.553 351.582 115.366 353.609 118.497 355.012C132.775 363.288 147.061 371.556 161.354 379.817C166.081 382.789 171.518 384.438 177.098 384.593C182.678 384.749 188.197 383.404 193.082 380.7C240.694 353.826 288.303 326.941 335.91 300.042C340.669 297.554 344.669 293.826 347.488 289.251C350.307 284.676 351.84 279.425 351.926 274.05V111.462C351.886 106.286 350.488 101.212 347.872 96.7472C345.256 92.2825 341.514 88.5841 337.021 86.0227H337.021Z" fill="white"/>
</g>
<defs>
<filter id="filter0_d" x="0.0683594" y="0.883545" width="355.857" height="391.722" filterUnits="userSpaceOnUse" color-interpolation-filters="sRGB">
<feFlood flood-opacity="0" result="BackgroundImageFix"/>
<feColorMatrix in="SourceAlpha" type="matrix" values="0 0 0 0 0 0 0 0 0 0 0 0 0 0 0 0 0 0 127 0" result="hardAlpha"/>
<feOffset dy="4"/>
<feGaussianBlur stdDeviation="2"/>
<feComposite in2="hardAlpha" operator="out"/>
<feColorMatrix type="matrix" values="0 0 0 0 0 0 0 0 0 0 0 0 0 0 0 0 0 0 0.25 0"/>
<feBlend mode="normal" in2="BackgroundImageFix" result="effect1_dropShadow"/>
<feBlend mode="normal" in="SourceGraphic" in2="effect1_dropShadow" result="shape"/>
</filter>
</defs>
</svg>
