<svg width="1445" height="907" viewBox="0 0 1445 907" fill="none" xmlns="http://www.w3.org/2000/svg">
<g id="welcome_pic" clip-path="url(#clip0)">
<path id="Vector" d="M923.39 906.133V791.013C923.39 791.013 971.716 872.628 923.39 906.133Z" fill="#F1F1F1"/>
<path id="Vector_2" d="M926.375 906.113L835.025 828.261C835.025 828.261 932.47 850.406 926.375 906.113Z" fill="#F1F1F1"/>
<path id="Rectangle 62" d="M1444.51 37.6038H1.47266V673.284H1444.51V37.6038Z" fill="#E5E5E5"/>
<path id="Rectangle 75" d="M1403.25 92.1144H42.7368V622.482H1403.25V92.1144Z" fill="white"/>
<path id="Rectangle 80" d="M1443.89 0.87677H0.857422V57.7885H1443.89V0.87677Z" fill="#EBC867"/>
<path id="Ellipse 90" d="M46.4141 39.7756C52.6894 39.7756 57.7766 35.053 57.7766 29.2273C57.7766 23.4016 52.6894 18.6789 46.4141 18.6789C40.1387 18.6789 35.0515 23.4016 35.0515 29.2273C35.0515 35.053 40.1387 39.7756 46.4141 39.7756Z" fill="white"/>
<path id="Ellipse 91" d="M89.5427 39.7756C95.8181 39.7756 100.905 35.053 100.905 29.2273C100.905 23.4016 95.8181 18.6789 89.5427 18.6789C83.2674 18.6789 78.1802 23.4016 78.1802 29.2273C78.1802 35.053 83.2674 39.7756 89.5427 39.7756Z" fill="white"/>
<path id="Ellipse 92" d="M132.673 39.7756C138.948 39.7756 144.036 35.053 144.036 29.2273C144.036 23.4016 138.948 18.6789 132.673 18.6789C126.398 18.6789 121.311 23.4016 121.311 29.2273C121.311 35.053 126.398 39.7756 132.673 39.7756Z" fill="white"/>
<path id="Title" d="M265.634 212.853C264.148 212.853 262.723 213.401 261.672 214.376C260.622 215.351 260.032 216.674 260.032 218.053C260.032 219.432 260.622 220.755 261.672 221.731C262.723 222.706 264.148 223.254 265.634 223.254H418.7C420.186 223.254 421.611 222.706 422.661 221.731C423.712 220.755 424.302 219.432 424.302 218.053C424.302 216.674 423.712 215.351 422.661 214.376C421.611 213.401 420.186 212.853 418.7 212.853H265.634Z" fill="#3F3D56"/>
<path id="paragraph_1" d="M179.067 284.464C177.581 284.464 176.156 285.012 175.105 285.988C174.055 286.963 173.465 288.286 173.465 289.665C173.465 291.044 174.055 292.367 175.105 293.342C176.156 294.318 177.581 294.866 179.067 294.866H505.267C506.753 294.866 508.178 294.318 509.229 293.342C510.279 292.367 510.869 291.044 510.869 289.665C510.869 288.286 510.279 286.963 509.229 285.988C508.178 285.012 506.753 284.464 505.267 284.464H179.067Z" fill="#CCCCCC"/>
<path id="paragraph_2" d="M179.067 325.84C177.581 325.84 176.156 326.388 175.105 327.363C174.055 328.339 173.465 329.661 173.465 331.041C173.465 332.42 174.055 333.743 175.105 334.718C176.156 335.693 177.581 336.241 179.067 336.241H505.267C506.753 336.241 508.178 335.693 509.229 334.718C510.279 333.743 510.869 332.42 510.869 331.041C510.869 329.661 510.279 328.339 509.229 327.363C508.178 326.388 506.753 325.84 505.267 325.84H179.067Z" fill="#CCCCCC"/>
<path id="paragraph_3" d="M179.067 367.216C177.581 367.216 176.156 367.764 175.105 368.739C174.055 369.714 173.465 371.037 173.465 372.416C173.465 373.796 174.055 375.118 175.105 376.094C176.156 377.069 177.581 377.617 179.067 377.617H505.267C506.753 377.617 508.178 377.069 509.229 376.094C510.279 375.118 510.869 373.796 510.869 372.416C510.869 371.037 510.279 369.714 509.229 368.739C508.178 367.764 506.753 367.216 505.267 367.216H179.067Z" fill="#CCCCCC"/>
<path id="paragraph_4" d="M179.067 408.591C177.581 408.591 176.156 409.139 175.105 410.115C174.055 411.09 173.465 412.413 173.465 413.792C173.465 415.171 174.055 416.494 175.105 417.469C176.156 418.445 177.581 418.993 179.067 418.993H505.267C506.753 418.993 508.178 418.445 509.229 417.469C510.279 416.494 510.869 415.171 510.869 413.792C510.869 412.413 510.279 411.09 509.229 410.115C508.178 409.139 506.753 408.591 505.267 408.591H179.067Z" fill="#CCCCCC"/>
<path id="paragraph_5" d="M179.067 449.967C177.581 449.967 176.156 450.515 175.105 451.49C174.055 452.466 173.465 453.788 173.465 455.168C173.465 456.547 174.055 457.87 175.105 458.845C176.156 459.82 177.581 460.368 179.067 460.368H505.267C506.753 460.368 508.178 459.82 509.229 458.845C510.279 457.87 510.869 456.547 510.869 455.168C510.869 453.788 510.279 452.466 509.229 451.49C508.178 450.515 506.753 449.967 505.267 449.967H179.067Z" fill="#CCCCCC"/>
<path id="paragraph_6" d="M179.067 491.343C177.581 491.343 176.156 491.891 175.105 492.866C174.055 493.841 173.465 495.164 173.465 496.543C173.465 497.923 174.055 499.246 175.105 500.221C176.156 501.196 177.581 501.744 179.067 501.744H505.267C506.753 501.744 508.178 501.196 509.229 500.221C510.279 499.246 510.869 497.923 510.869 496.543C510.869 495.164 510.279 493.841 509.229 492.866C508.178 491.891 506.753 491.343 505.267 491.343H179.067Z" fill="#CCCCCC"/>
<path id="Vector_3" d="M1255.16 503.971H761.289C757.988 503.967 754.824 502.748 752.49 500.581C750.155 498.415 748.842 495.477 748.839 492.412V222.719C748.842 219.654 750.155 216.716 752.49 214.549C754.824 212.383 757.988 211.164 761.289 211.16H1255.16C1258.46 211.164 1261.62 212.383 1263.96 214.549C1266.29 216.716 1267.6 219.654 1267.61 222.719V492.412C1267.6 495.477 1266.29 498.415 1263.96 500.581C1261.62 502.748 1258.46 503.967 1255.16 503.971V503.971Z" fill="#F1F1F1"/>
<path id="Vector_4" d="M1320.12 565.655H826.258C822.957 565.652 819.792 564.433 817.458 562.266C815.124 560.099 813.811 557.161 813.808 554.097V284.403C813.811 281.339 815.124 278.401 817.458 276.234C819.792 274.067 822.957 272.848 826.258 272.845H1320.12C1323.43 272.848 1326.59 274.067 1328.92 276.234C1331.26 278.401 1332.57 281.339 1332.57 284.403V554.097C1332.57 557.161 1331.26 560.099 1328.92 562.266C1326.59 564.433 1323.43 565.652 1320.12 565.655V565.655Z" fill="white"/>
<path id="Vector_5" d="M1320.12 569.589H826.258C821.834 569.584 817.592 567.95 814.464 565.046C811.336 562.142 809.576 558.204 809.571 554.097V284.404C809.576 280.297 811.336 276.359 814.464 273.455C817.592 270.551 821.834 268.917 826.258 268.912H1320.12C1324.55 268.917 1328.79 270.551 1331.92 273.455C1335.05 276.359 1336.81 280.297 1336.81 284.404V554.097C1336.81 558.204 1335.05 562.142 1331.92 565.046C1328.79 567.95 1324.55 569.584 1320.12 569.589V569.589ZM826.258 276.779C824.08 276.781 821.993 277.585 820.453 279.015C818.913 280.444 818.047 282.382 818.044 284.404V554.097C818.047 556.118 818.913 558.057 820.453 559.486C821.993 560.916 824.08 561.72 826.258 561.722H1320.12C1322.3 561.72 1324.39 560.916 1325.93 559.486C1327.47 558.057 1328.34 556.118 1328.34 554.097V284.404C1328.34 282.382 1327.47 280.444 1325.93 279.015C1324.39 277.585 1322.3 276.781 1320.12 276.779H826.258Z" fill="#3F3D56"/>
<path id="Vector_6" d="M1072.53 494.887C1096.19 494.887 1115.38 477.075 1115.38 455.103C1115.38 433.131 1096.19 415.318 1072.53 415.318C1048.86 415.318 1029.67 433.131 1029.67 455.103C1029.67 477.075 1048.86 494.887 1072.53 494.887Z" fill="#EB8C73"/>
<path id="Vector_7" d="M1155.2 416.828C1152.68 414.344 1149.64 412.353 1146.28 410.972C1142.92 409.592 1139.29 408.849 1135.61 408.788C1131.94 408.727 1128.28 409.349 1124.87 410.617C1121.45 411.886 1118.35 413.775 1115.73 416.173L976.742 545.202C958.938 561.807 940.353 536.41 928.477 526.168C899.917 499.947 869.07 549.114 849.873 563.195H1296.51V557.916L1155.2 416.828Z" fill="#EBC867"/>
<path id="Vector_8" d="M604.65 573.231L597.135 476.549L610.632 385.95L572.299 383.547L564.732 483.626L586.117 577.74C584.296 580.077 583.297 582.88 583.257 585.765C583.216 588.649 584.137 591.475 585.893 593.855C587.649 596.236 590.154 598.054 593.065 599.063C595.977 600.071 599.153 600.22 602.159 599.488C605.165 598.757 607.855 597.181 609.859 594.977C611.864 592.773 613.086 590.047 613.359 587.173C613.632 584.3 612.941 581.418 611.383 578.922C609.824 576.426 607.472 574.439 604.65 573.231V573.231Z" fill="#9F616A"/>
<path id="Vector_9" d="M567.408 396.568L576.409 360.403C578.133 353.477 582.644 347.426 589.019 343.489C595.394 339.552 603.149 338.027 610.696 339.226C618.242 340.426 625.009 344.26 629.609 349.942C634.21 355.624 636.295 362.724 635.438 369.787L630.481 410.652L567.408 396.568Z" fill="#CBCBCB"/>
<path id="Vector_10" d="M638.375 888.222H656.446L665.042 823.51L638.371 823.512L638.375 888.222Z" fill="#9F616A"/>
<path id="Vector_11" d="M633.764 882.745L669.354 882.743H669.355C675.371 882.744 681.139 884.962 685.393 888.911C689.646 892.859 692.036 898.214 692.036 903.798V904.483L633.765 904.485L633.764 882.745Z" fill="#2F2E41"/>
<path id="Vector_12" d="M728.407 887.672L745.78 883.053L734.852 818.645L709.211 825.464L728.407 887.672Z" fill="#9F616A"/>
<path id="Vector_13" d="M722.35 883.585L756.564 874.487L756.565 874.486C762.348 872.949 768.551 873.607 773.812 876.316C779.072 879.024 782.957 883.562 784.614 888.93L784.817 889.588L728.799 904.485L722.35 883.585Z" fill="#2F2E41"/>
<path id="Vector_14" d="M628.606 864.735L637.013 668.712L615.181 580.002C585.802 534.274 617.497 461.333 617.82 460.601L617.938 460.335L618.246 460.295L695.098 450.629L696.177 452.929C726.237 516.729 734.579 587.532 720.086 655.855L712.087 693.834L751.619 842.008L714.205 859.374L685.5 790.269L666.097 860.972L628.606 864.735Z" fill="#2F2E41"/>
<path id="Vector_15" d="M607.699 478.782L582.627 410.584C567.041 385.103 576.927 362.48 587.966 347.99C599.886 332.343 600.602 323.568 600.76 323.471L600.887 323.393L633.827 322.466L664.314 351.224C666.231 350.529 682.429 387.586 681.056 389.45L702.348 453.346L607.699 478.782Z" fill="#CBCBCB"/>
<path id="Vector_16" d="M810.706 490.577L728.116 431.269L664.425 361.489L636.921 386.394L712.175 458.398L801.958 506.401C802.619 509.22 804.201 511.781 806.489 513.733C808.777 515.685 811.659 516.934 814.74 517.308C817.821 517.682 820.952 517.163 823.704 515.822C826.455 514.481 828.694 512.384 830.112 509.818C831.531 507.251 832.061 504.34 831.63 501.483C831.199 498.626 829.828 495.962 827.704 493.857C825.58 491.751 822.807 490.305 819.764 489.718C816.722 489.131 813.558 489.431 810.706 490.577V490.577Z" fill="#9F616A"/>
<path id="Vector_17" d="M629.105 411.627L606.092 381.273C601.685 375.461 599.84 368.303 600.934 361.268C602.028 354.233 605.978 347.853 611.976 343.435C617.974 339.017 625.565 336.895 633.193 337.505C640.821 338.114 647.91 341.409 653.006 346.714L682.488 377.407L629.105 411.627Z" fill="#CBCBCB"/>
<path id="Vector_18" d="M613.483 314.104C635.086 314.104 652.599 297.846 652.599 277.791C652.599 257.735 635.086 241.477 613.483 241.477C591.88 241.477 574.367 257.735 574.367 277.791C574.367 297.846 591.88 314.104 613.483 314.104Z" fill="#9F616A"/>
<path id="Vector_19" d="M653.257 259.368H591.145V234.234C604.777 229.206 618.118 224.93 626.182 234.234C633.363 234.234 640.249 236.882 645.327 241.596C650.404 246.309 653.257 252.702 653.257 259.368V259.368Z" fill="#2F2E41"/>
<path id="Vector_20" d="M599.705 228.207C542.797 226.764 553.573 313.8 553.573 313.8C553.573 313.8 564.31 315.118 569.209 315.893L575.126 312.8L581.492 316.676C584.415 316.689 587.486 316.637 590.67 316.582L593.589 311.003L600.097 316.482C611.943 316.498 644.094 316.801 644.094 316.801C644.094 316.801 663.469 229.823 599.705 228.207Z" fill="#2F2E41"/>
<path id="Vector_21" d="M1060.55 905.462H407.435C406.98 905.462 406.544 905.294 406.223 904.995C405.901 904.697 405.721 904.292 405.721 903.87C405.721 903.448 405.901 903.043 406.223 902.745C406.544 902.446 406.98 902.279 407.435 902.279H1060.55C1061 902.279 1061.44 902.446 1061.76 902.745C1062.08 903.043 1062.26 903.448 1062.26 903.87C1062.26 904.292 1062.08 904.697 1061.76 904.995C1061.44 905.294 1061 905.462 1060.55 905.462Z" fill="#CBCBCB"/>
</g>
<defs>
<clipPath id="clip0">
<rect width="1443.65" height="905.256" fill="white" transform="translate(0.857422 0.87677)"/>
</clipPath>
</defs>
</svg>
