<svg width="1238" height="904" viewBox="0 0 1238 904" fill="none" xmlns="http://www.w3.org/2000/svg">
<g id="work with us pic" clip-path="url(#clip0)">
<path id="Vector" d="M766.242 726.809H38.9887C30.9805 726.8 23.3029 723.638 17.6402 718.019C11.9776 712.399 8.79229 704.78 8.7832 696.832V179.029C8.79229 171.081 11.9776 163.462 17.6402 157.842C23.3029 152.223 30.9805 149.062 38.9887 149.052H766.242C774.25 149.062 781.928 152.223 787.591 157.842C793.253 163.462 796.438 171.081 796.448 179.029V696.832C796.438 704.78 793.253 712.399 787.591 718.019C781.928 723.638 774.25 726.8 766.242 726.809ZM38.9887 164.83C35.1954 164.834 31.5587 166.331 28.8764 168.993C26.1941 171.655 24.6853 175.264 24.6809 179.029V696.832C24.6852 700.597 26.194 704.206 28.8763 706.868C31.5586 709.53 35.1954 711.027 38.9887 711.032H766.242C770.035 711.027 773.672 709.53 776.355 706.868C779.037 704.206 780.546 700.597 780.55 696.832V179.029C780.545 175.264 779.037 171.655 776.354 168.993C773.672 166.331 770.035 164.834 766.242 164.83H38.9887Z" fill="#E6E6E6"/>
<path id="Vector_2" d="M387.159 904C419.475 904 445.672 878.002 445.672 845.931C445.672 813.86 419.475 787.861 387.159 787.861C354.843 787.861 328.646 813.86 328.646 845.931C328.646 878.002 354.843 904 387.159 904Z" fill="#E6E6E6"/>
<path id="Vector_3" d="M387.159 890.451C411.935 890.451 432.02 870.518 432.02 845.931C432.02 821.343 411.935 801.411 387.159 801.411C362.384 801.411 342.299 821.343 342.299 845.931C342.299 870.518 362.384 890.451 387.159 890.451Z" fill="white"/>
<path id="Vector_4" d="M409.633 870.246C409.364 870.246 409.099 870.194 408.851 870.092C408.603 869.99 408.378 869.84 408.188 869.651L363.236 825.04C362.869 824.656 362.668 824.146 362.675 823.617C362.682 823.089 362.897 822.584 363.273 822.21C363.65 821.836 364.159 821.623 364.691 821.616C365.224 821.609 365.738 821.809 366.125 822.173L411.077 866.785C411.363 867.068 411.557 867.429 411.636 867.823C411.715 868.216 411.674 868.623 411.52 868.994C411.365 869.364 411.103 869.681 410.767 869.904C410.432 870.127 410.037 870.246 409.633 870.246H409.633Z" fill="#EB8C73"/>
<path id="Vector_5" d="M412.53 850.222C412.953 849.563 413.176 848.798 413.174 848.017C413.172 847.236 412.944 846.472 412.517 845.816C409.24 840.733 404.921 836.391 399.84 833.075C394.691 829.677 388.662 827.825 382.478 827.744C379.36 827.748 376.263 828.252 373.307 829.238C373.224 829.265 373.15 829.313 373.091 829.377C373.032 829.441 372.991 829.519 372.971 829.603C372.951 829.687 372.953 829.775 372.977 829.858C373.001 829.941 373.046 830.017 373.107 830.078L379.14 836.065C379.204 836.127 379.282 836.172 379.368 836.195C379.454 836.218 379.545 836.219 379.631 836.198C382.79 835.435 386.125 835.948 388.902 837.624C391.68 839.301 393.672 842.004 394.442 845.138L394.456 845.198C395.499 850.045 397.88 854.51 401.332 858.092L403.254 860.001C403.344 860.09 403.466 860.143 403.594 860.149C403.722 860.154 403.847 860.112 403.945 860.03C407.284 857.205 410.178 853.898 412.53 850.222Z" fill="#EB8C73"/>
<path id="Vector_6" d="M391.601 855.329C389.991 855.329 388.396 855.014 386.909 854.403C385.421 853.792 384.07 852.896 382.931 851.766C381.793 850.636 380.89 849.295 380.274 847.819C379.657 846.343 379.34 844.761 379.34 843.163C379.34 843.152 379.34 843.142 379.34 843.131C379.367 842.068 379.181 841.01 378.793 840.019C378.404 839.028 377.822 838.123 377.079 837.356L371.016 831.336C370.924 831.246 370.802 831.193 370.674 831.188C370.545 831.184 370.419 831.227 370.321 831.31C367.043 834.131 364.14 837.355 361.683 840.904C361.221 841.562 360.966 842.341 360.952 843.143C360.937 843.945 361.163 844.734 361.601 845.408C364.825 850.496 369.103 854.844 374.152 858.164C379.309 861.576 385.362 863.411 391.56 863.44C394.71 863.432 397.839 862.938 400.836 861.976C400.92 861.95 400.995 861.902 401.055 861.839C401.114 861.775 401.157 861.697 401.177 861.613C401.198 861.528 401.196 861.44 401.173 861.356C401.149 861.272 401.104 861.196 401.042 861.135L394.98 855.12C394.917 855.058 394.839 855.013 394.753 854.99C394.668 854.966 394.577 854.965 394.491 854.987C393.545 855.214 392.574 855.329 391.601 855.329V855.329Z" fill="#EB8C73"/>
<path id="Vector_7" d="M165.153 904C197.469 904 223.667 878.002 223.667 845.931C223.667 813.86 197.469 787.861 165.153 787.861C132.837 787.861 106.64 813.86 106.64 845.931C106.64 878.002 132.837 904 165.153 904Z" fill="#E6E6E6"/>
<path id="Vector_8" d="M165.153 890.451C189.929 890.451 210.013 870.518 210.013 845.931C210.013 821.343 189.929 801.411 165.153 801.411C140.378 801.411 120.293 821.343 120.293 845.931C120.293 870.518 140.378 890.451 165.153 890.451Z" fill="white"/>
<path id="Vector_9" d="M182.387 874.319C179.894 874.319 176.393 873.424 171.149 870.517C164.632 867.06 158.681 862.643 153.499 857.415C148.135 852.345 143.656 846.428 140.244 839.903C135.54 831.412 136.341 826.961 137.238 825.059C138.273 822.979 139.9 821.246 141.918 820.075C143.075 819.323 144.3 818.678 145.576 818.149C145.704 818.094 145.822 818.043 145.928 817.996C146.351 817.758 146.819 817.613 147.302 817.569C147.786 817.525 148.273 817.584 148.732 817.742C149.751 818.229 150.658 818.919 151.395 819.77C154.052 822.728 156.292 826.029 158.057 829.583C158.782 830.812 159.228 832.184 159.363 833.602C159.257 835.006 158.684 836.335 157.735 837.38C157.568 837.607 157.401 837.824 157.241 838.034C156.269 839.301 156.055 839.668 156.196 840.322C156.481 841.636 160.796 842.778 164.286 846.234C167.777 849.691 169.414 854.435 170.743 854.717C171.43 854.862 171.807 854.642 173.125 853.643C173.314 853.5 173.508 853.352 173.711 853.203C174.767 852.215 176.129 851.61 177.575 851.487H177.583C179.033 851.635 180.427 852.121 181.652 852.904C185.192 854.686 188.5 856.89 191.503 859.467C192.362 860.196 193.059 861.094 193.552 862.104C193.71 862.56 193.769 863.045 193.725 863.525C193.681 864.006 193.535 864.472 193.297 864.892C193.25 864.997 193.197 865.113 193.142 865.241C192.605 866.505 191.951 867.718 191.19 868.863C190.007 870.863 188.258 872.475 186.161 873.499C184.982 874.053 183.691 874.333 182.387 874.319V874.319Z" fill="#EB8C73"/>
<path id="Vector_10" d="M610.886 904C643.202 904 669.399 878.002 669.399 845.931C669.399 813.86 643.202 787.861 610.886 787.861C578.57 787.861 552.373 813.86 552.373 845.931C552.373 878.002 578.57 904 610.886 904Z" fill="#E6E6E6"/>
<path id="Vector_11" d="M610.886 890.451C635.662 890.451 655.746 870.518 655.746 845.931C655.746 821.343 635.662 801.411 610.886 801.411C586.11 801.411 566.026 821.343 566.026 845.931C566.026 870.518 586.11 890.451 610.886 890.451Z" fill="white"/>
<path id="Vector_12" d="M627.233 837.617C626.691 837.617 626.171 837.83 625.788 838.211C625.405 838.591 625.189 839.107 625.189 839.645V843.7C625.189 851.54 618.786 853.839 610.886 853.839C602.987 853.839 596.583 851.54 596.583 843.7V839.645C596.583 839.107 596.368 838.591 595.985 838.211C595.602 837.83 595.082 837.617 594.54 837.617C593.998 837.617 593.478 837.83 593.095 838.211C592.712 838.591 592.497 839.107 592.497 839.645V843.7C592.503 848.187 594.172 852.514 597.187 855.858C600.201 859.201 604.35 861.327 608.843 861.829V870.062C608.843 870.599 609.058 871.115 609.441 871.495C609.825 871.876 610.344 872.089 610.886 872.089H610.886C611.428 872.089 611.948 871.876 612.331 871.495C612.714 871.115 612.93 870.599 612.93 870.061V861.829C617.422 861.327 621.571 859.201 624.586 855.858C627.6 852.514 629.27 848.187 629.276 843.7V839.645C629.276 839.107 629.061 838.591 628.677 838.211C628.294 837.83 627.775 837.617 627.233 837.617V837.617Z" fill="#EB8C73"/>
<path id="Vector_13" d="M610.886 848.102C608.38 848.15 605.9 847.587 603.664 846.463C602.86 846.145 602.158 845.618 601.631 844.938C601.103 844.257 600.771 843.447 600.67 842.594V835.047C600.648 832.055 605.186 829.62 610.807 829.608C610.833 829.608 610.86 829.608 610.886 829.608C616.468 829.576 621.042 831.959 621.102 834.931C621.103 834.97 621.103 835.009 621.102 835.047V842.594C621.131 845.616 616.561 848.079 610.886 848.102Z" fill="#EB8C73"/>
<path id="Vector_14" d="M766.242 719.709H38.9891C32.8776 719.702 27.0184 717.289 22.6969 713.001C18.3754 708.712 15.9445 702.897 15.9375 696.832V179.029C15.9445 172.964 18.3754 167.149 22.6969 162.86C27.0184 158.572 32.8776 156.159 38.9891 156.152H766.242C772.354 156.159 778.213 158.572 782.535 162.86C786.856 167.149 789.287 172.964 789.294 179.029V696.832C789.287 702.897 786.856 708.712 782.535 713.001C778.213 717.289 772.354 719.702 766.242 719.709V719.709Z" fill="white"/>
<g id="head_man">
<path id="ab6171fa-7d69-4734-b81c-8dff60f9761b" d="M399.056 477.051C441.569 477.051 476.033 442.849 476.033 400.657C476.033 358.466 441.569 324.263 399.056 324.263C356.542 324.263 322.078 358.466 322.078 400.657C322.078 442.849 356.542 477.051 399.056 477.051Z" fill="#FFB8B8"/>
<path id="bf427902-b9bf-4946-b5d7-5c1c7e04535e" d="M313.184 327.166C313.767 318.393 319.612 309.416 338.186 304.725C338.186 304.725 370.061 264.274 413.376 285.487C413.376 285.487 434.374 281.902 449.945 303.523C449.945 303.523 465.383 294.487 471.897 310.503C471.897 310.503 490.003 343.173 483.337 376.495C476.671 409.818 473.259 413.976 473.259 413.976C473.259 413.976 481.756 345.049 432.818 349.829C383.88 354.608 344.48 337.529 333.397 374.924C324.195 405.975 325.354 422.101 325.354 422.101C325.354 422.101 294.58 391.125 305.044 366.734C310.395 354.258 312.287 340.695 313.184 327.166Z" fill="#2F2E41"/>
</g>
<path id="Vector_15" d="M189.722 718.92H615.509C612.663 686.687 610.803 662.706 610.803 654.596C610.803 618.83 581.313 579.797 581.313 579.797L570.757 574.007L482.604 546.713L459.791 517.304C457.402 514.216 454.324 511.72 450.799 510.011C447.274 508.303 443.397 507.43 439.474 507.459L367.41 507.996C361.068 508.044 354.974 510.441 350.32 514.717L305.695 555.8L240.245 586.818L240.133 586.708L239.45 587.213L229.736 594.154L223.489 598.635C223.489 598.635 207.098 618.151 193.999 676.684C192.027 685.488 190.644 700.224 189.722 718.92Z" fill="#EB8C73"/>
<path id="Vector_16" d="M1236.21 65.4351H1.79144C1.31262 65.4247 0.856949 65.2286 0.522013 64.8889C0.187077 64.5492 -0.000488281 64.0928 -0.000488281 63.6175C-0.000488281 63.1422 0.187077 62.6858 0.522013 62.346C0.856949 62.0063 1.31262 61.8102 1.79144 61.7998H1236.21C1236.69 61.8102 1237.14 62.0063 1237.48 62.346C1237.81 62.6858 1238 63.1422 1238 63.6175C1238 64.0928 1237.81 64.5492 1237.48 64.8889C1237.14 65.2286 1236.69 65.4247 1236.21 65.4351V65.4351Z" fill="#CACACA"/>
<path id="Vector_17" d="M42.1169 39.9881C53.0011 39.9881 61.8245 31.0365 61.8245 19.9941C61.8245 8.95164 53.0011 0 42.1169 0C31.2326 0 22.4092 8.95164 22.4092 19.9941C22.4092 31.0365 31.2326 39.9881 42.1169 39.9881Z" fill="#3F3D56"/>
<path id="Vector_18" d="M110.198 39.9881C121.082 39.9881 129.906 31.0365 129.906 19.9941C129.906 8.95164 121.082 0 110.198 0C99.3137 0 90.4902 8.95164 90.4902 19.9941C90.4902 31.0365 99.3137 39.9881 110.198 39.9881Z" fill="#3F3D56"/>
<path id="Vector_19" d="M178.279 39.9881C189.163 39.9881 197.987 31.0365 197.987 19.9941C197.987 8.95164 189.163 0 178.279 0C167.395 0 158.571 8.95164 158.571 19.9941C158.571 31.0365 167.395 39.9881 178.279 39.9881Z" fill="#3F3D56"/>
<path id="Vector_20" d="M1195.42 12.2298H1147.04C1146.09 12.2089 1145.18 11.8167 1144.51 11.1373C1143.84 10.4578 1143.46 9.54504 1143.46 8.5945C1143.46 7.64396 1143.84 6.73121 1144.51 6.05174C1145.18 5.37226 1146.09 4.9801 1147.04 4.95923H1195.42C1196.38 4.9801 1197.29 5.37226 1197.96 6.05174C1198.63 6.73121 1199 7.64396 1199 8.5945C1199 9.54504 1198.63 10.4578 1197.96 11.1373C1197.29 11.8167 1196.38 12.2089 1195.42 12.2298Z" fill="#3F3D56"/>
<path id="Vector_21" d="M1195.42 25.8621H1147.04C1146.09 25.8412 1145.18 25.4491 1144.51 24.7696C1143.84 24.0901 1143.46 23.1774 1143.46 22.2268C1143.46 21.2763 1143.84 20.3635 1144.51 19.6841C1145.18 19.0046 1146.09 18.6124 1147.04 18.5916H1195.42C1196.38 18.6124 1197.29 19.0046 1197.96 19.6841C1198.63 20.3635 1199 21.2763 1199 22.2268C1199 23.1774 1198.63 24.0901 1197.96 24.7696C1197.29 25.4491 1196.38 25.8412 1195.42 25.8621V25.8621Z" fill="#3F3D56"/>
<path id="Vector_22" d="M1195.42 39.4944H1147.04C1146.09 39.4736 1145.18 39.0814 1144.51 38.4019C1143.84 37.7224 1143.46 36.8097 1143.46 35.8591C1143.46 34.9086 1143.84 33.9959 1144.51 33.3164C1145.18 32.6369 1146.09 32.2448 1147.04 32.2239H1195.42C1196.38 32.2448 1197.29 32.6369 1197.96 33.3164C1198.63 33.9959 1199 34.9086 1199 35.8591C1199 36.8097 1198.63 37.7224 1197.96 38.4019C1197.29 39.0814 1196.38 39.4736 1195.42 39.4944V39.4944Z" fill="#3F3D56"/>
<path id="Vector_23" d="M1161.69 752.467H919.003C910.995 752.458 903.317 749.297 897.655 743.677C891.992 738.057 888.807 730.438 888.798 722.491V557.532C888.807 549.584 891.992 541.965 897.655 536.345C903.317 530.726 910.995 527.564 919.003 527.555H1161.69C1169.7 527.564 1177.38 530.726 1183.04 536.345C1188.7 541.965 1191.89 549.584 1191.9 557.532V722.491C1191.89 730.438 1188.7 738.057 1183.04 743.677C1177.38 749.297 1169.7 752.458 1161.69 752.467V752.467ZM919.003 543.332C915.21 543.337 911.573 544.834 908.891 547.496C906.209 550.158 904.7 553.767 904.696 557.532V722.491C904.7 726.255 906.209 729.864 908.891 732.526C911.573 735.188 915.21 736.686 919.003 736.69H1161.69C1165.48 736.686 1169.12 735.188 1171.8 732.526C1174.49 729.864 1176 726.255 1176 722.491V557.532C1176 553.767 1174.49 550.158 1171.8 547.496C1169.12 544.834 1165.48 543.337 1161.69 543.332H919.003Z" fill="#E6E6E6"/>
<path id="Vector_24" d="M1161.69 745.368H919.003C912.892 745.361 907.033 742.948 902.711 738.659C898.39 734.371 895.959 728.556 895.952 722.491V557.531C895.959 551.466 898.39 545.651 902.711 541.363C907.033 537.074 912.892 534.662 919.003 534.655H1161.69C1167.8 534.662 1173.66 537.074 1177.98 541.363C1182.31 545.651 1184.74 551.466 1184.74 557.531V722.491C1184.74 728.556 1182.31 734.371 1177.98 738.659C1173.66 742.948 1167.8 745.361 1161.69 745.368V745.368Z" fill="white"/>
<path id="Vector_25" d="M1063.1 588.352C1064.51 579.666 1060.54 573.27 1050.01 569.66C1039.54 560.644 1024.07 558.482 1014.78 572.922C1011.03 572.701 1007.34 573.925 1004.48 576.339C1001.62 578.753 999.803 582.17 999.418 585.878C990.887 595.719 1000.36 631.838 1003.17 645.601L1018.14 645.454L1048.04 645.161L1063.1 645.014L1068.85 612.743C1072.34 603.361 1070.92 595.133 1063.1 588.352Z" fill="#E6E6E6"/>
<path id="Vector_26" d="M1117.49 724.215C1121.4 721.736 1125.54 719.637 1129.86 717.948L1087.28 667.773L1059.13 660.626C1058.9 660.497 1058.68 660.366 1058.45 660.23L1010.98 662.037L1010.77 661.835L980.842 676.367L938.26 725.223C942.463 726.857 946.5 728.882 950.318 731.27L945.923 747.855H976.391L984.498 736.163H984.904C984.904 735.962 984.922 735.76 984.922 735.558L990.61 727.349C990.739 733.982 990.554 740.818 990.093 747.855H1084.86C1084.71 742.009 1084.67 736.2 1084.67 730.427L1095.27 745.692C1096.07 744.538 1096.91 743.457 1097.76 742.357L1099.85 747.855H1124.11L1118.3 725.901C1118.13 725.294 1117.86 724.723 1117.49 724.215V724.215Z" fill="#E6E6E6"/>
<path id="Vector_27" d="M1161.69 372.304H919.003C910.995 372.295 903.317 369.134 897.655 363.514C891.992 357.894 888.807 350.275 888.798 342.327V177.369C888.807 169.421 891.992 161.802 897.655 156.182C903.317 150.562 910.995 147.401 919.003 147.392H1161.69C1169.7 147.401 1177.38 150.562 1183.04 156.182C1188.7 161.802 1191.89 169.421 1191.9 177.369V342.327C1191.89 350.275 1188.7 357.894 1183.04 363.514C1177.38 369.134 1169.7 372.295 1161.69 372.304V372.304ZM919.003 163.169C915.21 163.174 911.573 164.671 908.891 167.333C906.209 169.995 904.7 173.604 904.696 177.369V342.327C904.7 346.092 906.209 349.701 908.891 352.363C911.573 355.025 915.21 356.522 919.003 356.527H1161.69C1165.48 356.522 1169.12 355.025 1171.8 352.363C1174.49 349.701 1176 346.092 1176 342.327V177.369C1176 173.604 1174.49 169.995 1171.8 167.333C1169.12 164.671 1165.48 163.174 1161.69 163.169H919.003Z" fill="#E6E6E6"/>
<path id="Vector_28" d="M1161.69 365.204H919.004C912.892 365.197 907.033 362.785 902.712 358.496C898.39 354.207 895.959 348.393 895.952 342.328V177.369C895.959 171.304 898.39 165.489 902.712 161.2C907.033 156.911 912.892 154.499 919.004 154.492H1161.69C1167.8 154.499 1173.66 156.911 1177.98 161.2C1182.31 165.489 1184.74 171.304 1184.74 177.369V342.328C1184.74 348.393 1182.31 354.207 1177.98 358.496C1173.66 362.785 1167.8 365.197 1161.69 365.204V365.204Z" fill="white"/>
<path id="Vector_29" d="M1009.69 235.826C1010.42 243.159 1013.7 250.012 1018.97 255.205C1024.23 260.398 1031.16 263.608 1038.55 264.283C1045.95 264.957 1053.35 263.054 1059.48 258.901C1065.61 254.748 1070.09 248.603 1072.16 241.525C1073.19 240.456 1084.65 228.3 1080.5 218.63C1078.45 213.383 1077.31 207.831 1077.12 202.208C1076.88 198.566 1074.46 194.841 1066.75 192.894C1066.75 192.894 1053.52 176.105 1035.54 184.909C1035.54 184.909 1026.83 183.421 1020.36 192.395C1020.36 192.395 1013.96 188.645 1011.25 195.292C1011.25 195.292 1003.74 208.851 1006.5 222.681C1007.32 227.119 1008.38 231.508 1009.69 235.826V235.826Z" fill="#E6E6E6"/>
<path id="Vector_30" d="M1126.59 350.55C1121.15 326.256 1114.35 318.156 1114.35 318.156L1111.76 316.297L1107.73 313.416L1107.44 313.206L1107.4 313.252L1080.23 300.378L1061.71 283.327C1059.78 281.553 1057.25 280.558 1054.62 280.538L1024.71 280.315C1023.08 280.303 1021.47 280.665 1020.01 281.374C1018.55 282.083 1017.27 283.119 1016.28 284.401L1006.81 296.607L970.222 307.935L965.841 310.338C965.841 310.338 953.602 326.538 953.602 341.383C953.602 344.748 952.83 354.701 951.648 368.079H1128.37C1128.21 362.201 1127.62 356.342 1126.59 350.55Z" fill="#E6E6E6"/>
<path id="Vector_31" d="M1010.21 595.074H692.915C682.445 595.062 672.407 590.93 665.004 583.582C657.601 576.235 653.436 566.274 653.424 555.883V340.216C653.436 329.826 657.601 319.864 665.004 312.517C672.407 305.17 682.445 301.037 692.915 301.025H1010.21C1020.68 301.037 1030.71 305.17 1038.12 312.517C1045.52 319.864 1049.68 329.826 1049.7 340.216V555.883C1049.68 566.274 1045.52 576.235 1038.12 583.582C1030.71 590.93 1020.68 595.062 1010.21 595.074ZM692.915 321.652C687.955 321.658 683.201 323.615 679.694 327.095C676.187 330.576 674.214 335.294 674.209 340.216V555.883C674.214 560.805 676.187 565.524 679.694 569.004C683.201 572.484 687.955 574.442 692.915 574.447H1010.21C1015.16 574.442 1019.92 572.484 1023.43 569.004C1026.93 565.524 1028.91 560.805 1028.91 555.883V340.216C1028.91 335.294 1026.93 330.576 1023.43 327.095C1019.92 323.615 1015.16 321.658 1010.21 321.652H692.915Z" fill="#E6E6E6"/>
<path id="Vector_32" d="M1010.2 310.305H692.916C684.924 310.315 677.263 313.471 671.611 319.079C665.96 324.687 662.781 332.291 662.77 340.222V555.89C662.781 563.819 665.962 571.421 671.613 577.026C677.265 582.632 684.926 585.784 692.916 585.791H1010.2C1018.19 585.784 1025.85 582.632 1031.5 577.026C1037.16 571.421 1040.34 563.819 1040.35 555.89V340.222C1040.34 332.291 1037.16 324.687 1031.51 319.079C1025.85 313.471 1018.19 310.315 1010.2 310.305V310.305Z" fill="white"/>
<g id="head_woman">
<path id="Vector_33" d="M907.377 400.464C921.062 400.464 932.155 389.455 932.155 375.875C932.155 362.294 921.062 351.285 907.377 351.285C893.693 351.285 882.6 362.294 882.6 375.875C882.6 389.455 893.693 400.464 907.377 400.464Z" fill="#2F2E41"/>
<path id="Vector_34" d="M856.475 484.023C891.142 484.023 919.245 456.133 919.245 421.729C919.245 387.325 891.142 359.436 856.475 359.436C821.809 359.436 793.706 387.325 793.706 421.729C793.706 456.133 821.809 484.023 856.475 484.023Z" fill="#2F2E41"/>
<path id="Vector_35" d="M845.569 487.811C873.74 487.811 896.577 465.148 896.577 437.191C896.577 409.234 873.74 386.57 845.569 386.57C817.398 386.57 794.562 409.234 794.562 437.191C794.562 465.148 817.398 487.811 845.569 487.811Z" fill="#9E616A"/>
<path id="Vector_36" d="M826.34 374.15C836.249 370.799 846.883 370.152 857.13 372.276C867.377 374.399 876.861 379.216 884.59 386.222C892.319 393.229 898.01 402.167 901.067 412.103C904.123 422.039 904.434 432.607 901.967 442.703C875.179 443.419 847.441 442.368 822.55 426.744L819.642 409.813L812.391 424.511C803.402 426.033 794.507 427.036 787.638 419.008C789.569 408.824 794.159 399.32 800.951 391.449C807.743 383.577 816.498 377.612 826.34 374.15Z" fill="#2F2E41"/>
<path id="Vector_37" d="M944.512 315.693C962.943 311.778 983.126 319.986 994.375 334.995C1005.62 350.005 1007.89 370.889 1001.15 388.358C994.27 406.179 979.422 419.553 965.54 432.757C951.657 445.96 937.681 460.702 933.514 479.331C930.513 492.749 932.996 506.8 940.419 518.404C947.841 530.007 959.598 538.216 973.111 541.229C955.724 544.502 937.613 547.755 920.539 543.139C903.464 538.523 887.848 523.519 888.827 505.983C889.533 493.348 898.224 482.795 905.784 472.604C918.1 455.999 928.352 437.979 936.317 418.936C940.118 409.847 943.442 400.143 942.375 390.359C941.412 383.071 938.115 376.283 932.97 370.996C927.825 365.709 921.104 362.202 913.799 360.994L909.239 354.644C910.76 335.999 926.081 319.608 944.512 315.693Z" fill="#2F2E41"/>
</g>
<path id="Vector_38" d="M962.595 584.397C959.292 550.988 940.626 552.3 940.626 552.3L891.335 542.743L869.745 507.17L815.548 505.071L796.255 538.644L756.611 543.562L756.578 544.12C752.646 544.415 738.473 547.497 735.632 576.201C735.368 578.84 735.005 582.07 734.542 585.791H962.744C962.694 585.299 962.645 584.84 962.595 584.397Z" fill="#2F2E41"/>
</g>
<defs>
<clipPath id="clip0">
<rect width="1238" height="904" fill="white"/>
</clipPath>
</defs>
</svg>
